<svg xmlns="http://www.w3.org/2000/svg" width="24" height="24" viewBox="0 0 24 24">
  <path fill="#38B6B2" fill-rule="evenodd" d="M132.766065,0 L115.233935,0 C113.447954,0 112,1.44795384 112,3.23393481 L112,20.7660652 C112,22.5522663 113.447954,24 115.233935,24 L123.880634,24 L123.895532,15.4239008 L121.667238,15.4239008 C121.377648,15.4239008 121.142585,15.1896449 121.141704,14.9001275 L121.130842,12.1354384 C121.129668,11.8444532 121.365612,11.6077021 121.656597,11.6077021 L123.880927,11.6077021 L123.880927,8.93643644 C123.880927,5.83665569 125.774129,4.14872167 128.539332,4.14872167 L130.808649,4.14872167 C131.098753,4.14872167 131.334404,4.38407838 131.334404,4.67447642 L131.334404,7.00543992 C131.334404,7.29583796 131.099047,7.53119467 130.808942,7.53119467 L129.41625,7.53200194 C127.912374,7.53200194 127.621096,8.24643837 127.621096,9.29537928 L127.621096,11.6079223 L130.92563,11.6079223 C131.240687,11.6079223 131.484923,11.8829088 131.447642,12.1953233 L131.119963,14.9600125 C131.088699,15.2246512 130.864277,15.4239008 130.597951,15.4239008 L127.636067,15.4239008 L127.621096,24.0002936 L132.766065,24.0002936 C134.552046,24.0002936 136,22.5522663 136,20.7662854 L136,3.23393481 C136,1.44795384 134.552046,0 132.766065,0" transform="translate(-112)"/>
</svg>
