<svg xmlns="http://www.w3.org/2000/svg" width="24" height="24" viewBox="0 0 24 24">
  <path fill="#38B6B2" fill-rule="evenodd" d="M68,0 C64.7409869,0 64.3323412,0.0137283375 63.0524373,0.0722184192 C61.7751108,0.130550704 60.9028005,0.333372426 60.1395816,0.629978155 C59.3504311,0.936630292 58.6812075,1.34695505 58.0140879,2.01406809 C57.3469683,2.68118114 56.9366395,3.35045074 56.630037,4.13954085 C56.3332705,4.90285746 56.1304468,5.77515918 56.0722191,7.05242056 C56.0137811,8.33231189 56,8.74090088 56,11.999882 C56,15.2589683 56.0137811,15.6675572 56.0722191,16.9474486 C56.1304468,18.22471 56.3332705,19.0970117 56.630037,19.8603283 C56.9366395,20.6494184 57.3469683,21.318688 58.0140879,21.985801 C58.6812075,22.6529141 59.3504311,23.0632388 60.1395816,23.369891 C60.9028005,23.6664967 61.7751108,23.8693184 63.0524373,23.9276507 C64.3323412,23.9860356 64.7409869,23.9998691 68,23.9998691 C71.2590131,23.9998691 71.6677114,23.9860356 72.9476153,23.9276507 C74.2248892,23.8693184 75.0971995,23.6664967 75.860471,23.369891 C76.6496215,23.0632388 77.3187925,22.6529141 77.9859121,21.985801 C78.6530317,21.318688 79.0633605,20.6494184 79.3700156,19.8603283 C79.6667295,19.0970117 79.8695532,18.22471 79.9278335,16.9474486 C79.9862715,15.6675572 80,15.2589683 80,11.999882 C80,8.74090088 79.9862715,8.33231189 79.9278335,7.05242056 C79.8695532,5.77515918 79.6667295,4.90285746 79.3700156,4.13954085 C79.0633605,3.35045074 78.6530317,2.68118114 77.9859121,2.01406809 C77.3187925,1.34695505 76.6496215,0.936630292 75.860471,0.629978155 C75.0971995,0.333372426 74.2248892,0.130550704 72.9476153,0.0722184192 C71.6677114,0.0137283375 71.2590131,0 68,0 M68,2.16213426 C71.2041519,2.16213426 71.5836047,2.17433723 72.8490438,2.23203832 C74.0190147,2.2854263 74.6544168,2.48098936 75.0772643,2.64525602 C75.6374491,2.86296326 76.0372054,3.12301269 76.4570547,3.54291046 C76.8770618,3.96286083 77.1371138,4.36256059 77.354718,4.92268728 C77.5189862,5.3455306 77.7145512,5.98097905 77.7679397,7.15088588 C77.8256414,8.41631248 77.8378971,8.79576163 77.8378971,11.999882 C77.8378971,15.2041075 77.8256414,15.5835567 77.7679397,16.8488781 C77.7145512,18.0188901 77.5189862,18.6543385 77.354718,19.0771819 C77.1371138,19.6372559 76.8770618,20.0370083 76.4570547,20.4569587 C76.0372054,20.8768564 75.6374491,21.1369059 75.0772643,21.3545605 C74.6544168,21.5188798 74.0190147,21.7144428 72.8490438,21.7677256 C71.5838151,21.8255319 71.2044149,21.8376823 68,21.8376823 C64.7955851,21.8376823 64.4161849,21.8255319 63.1509562,21.7677256 C61.9810379,21.7144428 61.3455832,21.5188798 60.9227357,21.3545605 C60.3626035,21.1369059 59.9628472,20.8768564 59.5429453,20.4569587 C59.123096,20.0370083 58.863044,19.6372559 58.6453346,19.0771819 C58.4810138,18.6543385 58.2855014,18.0188901 58.2320603,16.8488781 C58.1744112,15.5835567 58.1621555,15.2041075 58.1621555,11.999882 C58.1621555,8.79576163 58.1744112,8.41631248 58.2320603,7.15088588 C58.2855014,5.98097905 58.4810138,5.3455306 58.6453346,4.92268728 C58.863044,4.36256059 59.123096,3.96286083 59.5429453,3.54291046 C59.9628472,3.12301269 60.3626035,2.86296326 60.9227357,2.64525602 C61.3455832,2.48098936 61.9810379,2.2854263 63.1509562,2.23203832 C64.4163953,2.17433723 64.7958481,2.16213426 68,2.16213426 M68,15.9998777 C65.7908731,15.9998777 63.9999649,14.2090397 63.9999649,11.999882 C63.9999649,9.79077681 65.7908731,7.99993885 68,7.99993885 C70.2091795,7.99993885 72.0000351,9.79077681 72.0000351,11.999882 C72.0000351,14.2090397 70.2091795,15.9998777 68,15.9998777 M68,5.83780458 C64.596759,5.83780458 61.837862,8.59672703 61.837862,11.999882 C61.837862,15.4031947 64.596759,18.162012 68,18.162012 C71.403241,18.162012 74.162138,15.4031947 74.162138,11.999882 C74.162138,8.59672703 71.403241,5.83780458 68,5.83780458 M75.8456906,5.59432384 C75.8456906,6.38956803 75.2009784,7.03432651 74.4056737,7.03432651 C73.6104217,7.03432651 72.9656569,6.38956803 72.9656569,5.59432384 C72.9656569,4.79902704 73.6104217,4.15432117 74.4056737,4.15432117 C75.2009784,4.15432117 75.8456906,4.79902704 75.8456906,5.59432384" transform="translate(-56)"/>
</svg>
