<svg xmlns="http://www.w3.org/2000/svg" width="117" height="64" viewBox="0 0 117 64">
  <defs>
    <filter id="a" width="200%" height="200%" x="-50%" y="-50%" filterUnits="objectBoundingBox">
      <feOffset dx="1" dy="1" in="SourceAlpha" result="shadowOffsetOuter1"/>
      <feGaussianBlur stdDeviation="1" in="shadowOffsetOuter1" result="shadowBlurOuter1"/>
      <feColorMatrix values="0 0 0 0 0.262745098 0 0 0 0 0.0431372549 0 0 0 0 0.0431372549 0 0 0 0.2 0" in="shadowBlurOuter1" result="shadowMatrixOuter1"/>
      <feMerge>
        <feMergeNode in="shadowMatrixOuter1"/>
        <feMergeNode in="SourceGraphic"/>
      </feMerge>
    </filter>
  </defs>
  <path fill="#38B6B2" fill-rule="evenodd" d="M111.924646,54.7260468 C111.559085,54.6131311 111.196093,54.4888811 110.823897,54.4067606 C100.807783,52.197206 90.8085775,49.9048894 80.7644261,47.8300637 C76.4127952,46.9310154 71.9868963,46.2139581 67.5601413,45.8987351 C62.3438346,45.5270543 57.4432201,45.5373194 52.2057245,45.5514338 C47.8202771,45.5631959 43.0799701,45.8735002 38.7555208,46.6523617 C31.0168862,48.0464855 23.3529476,50.1099767 15.7316007,51.7709921 C35.5649955,38.3872761 51.6884172,19.7461376 62.6927013,0.095815172 C62.7102517,0.0645922755 62.6892769,0.0250290162 62.6537481,0.0198964852 C62.3703741,-0.0203083405 61.9328995,0.00171877148 61.6585148,0.074215771 C61.6585148,0.074215771 61.0722903,1.00170688 60.7756465,1.4552943 C55.3091403,9.81982274 48.9811686,19.3169297 41.8910409,27.2901026 C34.9907565,35.0498478 26.8833505,41.7837284 18.5317378,47.9573077 C15.4786188,50.2143382 14.8656407,50.4808021 11.7087178,52.8332121 C9.59518471,53.6084381 6.16730153,55.0502516 3.38492883,56.2264566 C2.83187874,56.4602006 2.30023153,56.7510441 1.78613466,57.0598513 C1.26604499,57.3722942 0.637228762,57.7170292 0.272095851,58.2136015 C-0.023691771,58.6160775 -0.137126966,59.3587975 0.23528292,59.7554994 C0.440750443,59.9740596 0.772494881,60.0230325 1.07085085,59.9911681 C2.65123855,59.8228638 4.09850041,59.0936167 5.49846194,58.3917431 C7.32155815,57.477511 10.500954,55.6058481 12.2136115,54.5021401 C15.5370486,53.559893 17.9395205,52.8697814 19.8373127,52.3469048 C22.4506027,51.6270673 25.0692435,50.9266907 27.6970875,50.2616003 C33.2744606,48.8497265 38.9196808,47.6331029 44.6524388,47.0651028 C50.3012974,46.505443 56.1930787,46.7595033 61.8680488,46.9528287 C65.8866512,47.0894823 69.924302,47.3724131 73.8973162,47.9671451 C78.5402401,48.6619615 83.1382181,49.6869707 87.7306312,50.6893112 C94.5654228,52.180953 101.21829,53.6601912 108.495265,54.7544895 C109.603291,54.9210829 110.73058,54.9963601 111.851876,55.0979414 C111.947761,55.1067095 112.034871,55.0434083 112.055632,54.9495257 C112.077035,54.8522215 112.019889,54.7555588 111.924646,54.7260468 M110.984685,9.47200054 C111.035124,9.43494637 111.091384,9.40496034 111.153895,9.38397012 C112.167648,9.04170096 112.304956,10.7901009 112.022148,11.3474127 C111.62057,12.1381873 111.111,12.8829118 110.585693,13.6023625 C107.529778,17.7873418 104.427518,21.9391223 101.395313,26.1410224 C98.7226536,29.8447259 96.1185402,33.5972638 93.4911469,37.3333094 C93.09582,37.8951191 92.719893,38.4702084 92.369617,39.0607191 C91.8313775,39.9677966 91.2015274,40.8543122 90.8562091,41.8586302 C90.68937,42.3431188 90.568875,42.8610204 90.5904305,43.376566 C90.6061659,43.7528908 90.9189355,44.4134402 90.68549,44.734505 C90.2772298,45.2963147 89.5637446,44.7617066 89.3505612,44.3331205 C89.1416889,43.9131018 89.0604249,43.3701405 89.1028891,42.8976462 C89.2361018,41.4186922 89.7693835,40.0663221 90.5850416,38.8165471 C93.7079946,34.0318471 96.3090903,30.4129612 99.4249301,26.3614197 C102.484726,22.3822731 105.657903,18.3129541 108.64441,13.9564118 C109.011715,13.4203044 109.475588,12.9895765 109.90605,12.501875 C110.476623,11.8552476 110.55142,11.1612852 110.603153,10.3420239 C110.623847,10.017318 110.733779,9.65641465 110.984685,9.47200054 M35.8312356,41.7336869 C37.1690319,41.4551692 38.5248186,41.3656532 39.8524274,40.586949 C41.8608558,39.4086046 44.2319111,38.3242308 46.3185872,37.2784635 C46.6946527,37.0900981 47.3197668,36.9121267 47.5751012,37.0867041 C47.8382387,37.2663725 47.902831,37.894045 47.859047,38.3057761 C47.6470631,40.2974008 47.9242895,40.7070107 49.9567774,41.069105 C50.4878209,41.1634998 51.0340372,41.1730453 51.5713665,41.2368944 C52.0943903,41.2988344 52.5452354,41.4623814 52.7483325,42.1439332 C52.7769438,42.2404493 52.7279577,42.3465109 52.6315029,42.3808748 C51.1799116,42.8984554 49.7753556,42.5149367 48.432574,42.0813569 C47.1151525,41.6558377 45.9847884,41.2233185 45.9847884,39.2709366 C45.9847884,39.1296626 45.8306774,39.0384496 45.7025766,39.1037836 C45.0835316,39.4187865 44.5433844,39.6983649 43.9965179,39.9645795 C41.3796654,41.2383793 38.7682316,42.5302095 35.8756699,43.1180029 C35.4222237,43.2100644 34.9382154,43.2590648 34.4810845,43.211125 C33.5861135,43.1175787 33.2913301,42.5299974 33.7640673,41.7990209 C34.0111651,41.4167749 34.330875,41.0576503 34.6859155,40.7676779 C38.2165965,37.8817418 42.1705951,35.7416309 46.5641677,34.3942244 C46.9742634,34.2686475 47.4064678,34.1795557 47.8341204,34.1487979 C48.4564168,34.1038277 49.0969203,34.5963778 49.0719938,35.0766247 C49.0388307,35.7153277 48.4666042,35.70557 48.035917,35.7989042 C47.5456229,35.9051779 46.8697887,35.8608442 46.3911992,35.9908757 C45.9087082,36.1219678 45.5302584,36.440789 45.0856991,36.6482455 C44.5964888,36.87649 44.0585091,36.9615514 43.5560769,37.1594624 C41.0296101,38.1551686 38.7088414,39.5341815 36.4786752,41.0517109 C36.1810741,41.2542885 36.0055046,41.4258962 35.8312356,41.7336869 M60.6474864,35.3074752 C60.7744353,35.3393329 60.8660967,35.4152044 60.881804,35.561079 C60.9431267,36.1273909 60.5657227,36.4709087 60.1076309,36.7408605 C59.0978493,37.3360958 58.0532105,37.8783049 57.0683883,38.5097992 C56.7262718,38.7292398 54.2567931,40.5646185 54.8842219,41.0190094 C54.9556575,41.0707781 55.0496858,41.0789521 55.13855,41.0852398 C59.1363643,41.3692342 62.8325135,39.5971516 65.8328107,37.12441 C65.848518,37.1120442 65.86401,37.0996784 65.8795021,37.087103 C66.7061761,36.4268949 67.4721728,35.6920727 68.2398908,34.9652149 C68.4746387,34.7428401 68.7543566,34.5454064 69.0887271,34.5091473 C69.2806566,34.4883979 69.5093797,34.4814815 69.6899054,34.5581914 C70.0049108,34.6923289 69.8489142,34.95243 69.7374574,35.1800446 C69.6100782,35.4405648 69.481408,35.7017138 69.3129317,35.9400175 C67.788254,38.0950208 65.7217843,39.6734423 63.2989969,40.692678 C61.9658184,41.2537501 60.5633559,41.7978455 59.150135,42.2061266 C57.8180323,42.5911432 56.1971747,43.1056864 54.8059009,42.7739056 C53.7683627,42.5265895 52.6497062,41.1835375 53.2973608,40.0880111 C53.6140875,39.5518802 53.9878336,39.0186835 54.4450648,38.5955215 C55.969097,37.1843527 57.7812386,36.2017953 59.7261387,35.4533498 C59.9260294,35.3764303 60.370996,35.2378914 60.6474864,35.3074752 M81.9461701,38.3501544 C81.965836,38.3444712 81.9809637,38.3400509 81.9906886,38.3377356 C83.096521,38.0529459 84.1589153,37.6723843 85.2105042,37.236675 C85.4186177,37.1503751 87.5725811,36.2553819 87.513151,36.0912016 C87.4545853,35.9297576 86.8101468,36.0697319 86.6897738,36.0855184 C86.3519946,36.1295103 86.0165927,36.1890783 85.6846485,36.2638014 C84.8344736,36.4547137 84.010232,36.745818 83.2164618,37.0964903 C82.4974654,37.414537 81.7657186,37.7713135 81.2362503,38.3589948 C81.2150716,38.3825694 81.0618499,38.5922151 81.0657399,38.5913731 C81.5362103,38.4934964 81.7412982,38.4097223 81.9461701,38.3501544 M78.9921692,40.7469765 C79.0094579,40.8017032 79.0256661,40.8459056 79.0323655,40.8631656 C79.1276698,41.1062788 79.2830526,41.3369732 79.4529146,41.5363049 C79.804957,41.9497025 80.2853685,42.2568039 80.8217523,42.3873062 C80.8489821,42.3938313 80.876428,42.3999355 80.9038739,42.4058291 C81.3181558,42.4919185 81.7300605,42.5712724 82.1553641,42.6036874 C82.3414343,42.6177901 82.2766015,42.6266306 82.5512767,42.6316823 C82.7325926,42.6352606 82.7833783,42.772709 82.6727302,42.7893375 C81.4813185,42.9684624 80.1582961,42.899633 79.0403616,42.4374023 C78.6541739,42.2778527 78.289381,42.0501051 78.0278885,41.7303745 C77.75062,41.3916999 77.6516419,41.0719693 77.5407777,40.6596241 C77.2786369,40.6916182 76.2484428,40.7888635 75.6491712,40.7619211 C75.4840635,40.754554 75.3865981,40.635839 75.5508413,40.5141772 C75.8207621,40.313793 76.0863607,40.1879214 76.3977745,40.0580506 C76.9637653,39.8252513 77.3555718,39.889871 77.845276,39.5221492 C78.5357459,39.0035078 79.0706169,38.3240539 79.7725406,37.8165683 C80.471871,37.3111876 81.2338731,36.8868447 82.017054,36.5180704 C83.1386623,35.9901676 84.3188364,35.5805587 85.5175958,35.2536715 C87.1168062,34.8175412 88.8132658,34.4456097 90.4824957,34.5007574 C90.6510611,34.5064406 90.8282709,34.5184384 90.9700387,34.6074746 C91.5187408,34.9518323 90.8989387,35.6559133 90.5713167,35.8731365 C89.8905717,36.3244218 89.1624988,36.7245587 88.4389642,37.0908071 C85.4480085,38.6048443 82.1583896,39.4112223 78.9634266,40.399251 C78.9005387,40.4188263 78.9498117,40.6139483 78.9921692,40.7469765 M71.7640572,37.1841957 C72.0231412,37.1189568 72.1668367,37.0342759 72.2502449,36.9817824 C73.3846828,36.2660992 74.1952117,35.9945587 75.284056,35.5728823 C76.4945553,35.1043291 77.8457249,35.1004407 79.0955513,35.3972559 C79.6145837,35.5206048 80.1431237,35.7113529 79.9769556,36.3700061 C79.8211594,36.987831 79.2457293,37.1036192 78.7545717,36.8685865 C77.2249172,36.1373497 75.6114224,36.6408986 74.3030373,37.454224 C73.2187308,38.1282149 72.1149767,38.7706664 71.0285093,39.4409848 C70.4144002,39.8201046 69.7832206,40.1767581 69.20671,40.612908 C68.5919527,41.0777888 68.1345041,41.6653705 67.6016425,42.2136362 C67.4071674,42.4138892 67.188491,42.5435028 66.9616034,42.5301094 C66.2809406,42.4901452 66.390711,41.8712402 66.3863893,41.6489528 C66.3734243,40.9779863 66.8345463,40.5964902 67.1982147,40.1843189 C67.5955921,39.7334795 68.139258,39.4116057 68.6187471,39.0329179 C69.1034222,38.6499097 69.5902581,38.2539401 69.9910928,37.7810664 C70.1680651,37.5726045 70.3316403,37.3455646 70.4394659,37.0930341 C70.4885168,36.978542 70.5261154,36.8590815 70.5438342,36.7355165 C70.5764628,36.5102048 70.465612,36.3468917 70.7037359,36.1987001 C70.9288948,36.0585014 71.0998168,36.0403555 71.3589008,36.1913553 C71.6830259,36.3803752 71.7096042,36.8880285 71.7640572,37.1841957" filter="url(#a)" transform="translate(1 1)"/>
</svg>
