<svg xmlns="http://www.w3.org/2000/svg" width="321" height="172" viewBox="0 0 321 172">
  <path fill="#1A2020" fill-rule="evenodd" d="M320.352061,156.637546 C319.305748,156.314357 318.266786,155.958727 317.201483,155.723681 C288.533243,149.399468 259.913397,142.838371 231.164907,136.899781 C218.709617,134.326514 206.041756,132.274144 193.371445,131.371909 C178.441269,130.30808 164.414672,130.33746 149.423849,130.377859 C136.871769,130.411524 123.304006,131.299681 110.926515,133.528948 C88.7769029,137.519226 66.8410861,143.425375 45.0271758,148.179553 C101.794556,109.872521 147.943206,56.5176312 179.4398,0.274243332 C179.490033,0.184876784 179.429998,0.0716383495 179.328307,0.056947958 C178.517231,-0.058126775 177.265086,0.0049194883 176.479739,0.212421268 C176.479739,0.212421268 174.80184,2.86709742 173.952783,4.16536077 C158.306483,28.1064142 140.194487,55.2891472 119.901038,78.1100583 C100.150962,100.320094 76.9458475,119.593887 53.0417616,137.26398 C44.303088,143.72408 42.5486147,144.486756 33.5128323,151.219852 C27.4634525,153.438713 17.6521242,157.565489 9.68838379,160.932037 C8.10543722,161.601062 6.5837502,162.433517 5.112296,163.317389 C3.62368913,164.211667 1.82388379,165.198371 0.778796,166.619667 C-0.0678108706,167.771638 -0.392486443,169.89746 0.673429587,171.032905 C1.26152119,171.658471 2.21104409,171.798642 3.06500211,171.707439 C7.58840669,171.225717 11.7307769,169.138457 15.7377636,167.129546 C20.9558513,164.51282 30.0559563,159.155724 34.9579449,155.996677 C44.4703265,153.299766 51.3467101,151.324521 56.7785937,149.827937 C64.2583838,147.76761 71.7534887,145.762984 79.2749353,143.859354 C95.2385594,139.818272 111.396376,136.336037 127.804744,134.7103 C143.972975,133.108436 160.836502,133.83561 177.07947,134.388948 C188.581561,134.78008 200.138174,135.589887 211.509783,137.292137 C224.798815,139.280848 237.959202,142.214642 251.103662,145.083553 C270.666285,149.352948 289.708201,153.586841 310.536445,156.718955 C313.707851,157.195781 316.934391,157.41124 320.143779,157.701987 C320.418222,157.727083 320.667548,157.545902 320.72697,157.27719 C320.788229,156.998685 320.624666,156.722016 320.352061,156.637546 M317.661693,27.1108733 C317.806062,27.0048164 317.967089,26.91899 318.146008,26.8589115 C321.047583,25.8792647 321.440588,30.8835559 320.631133,32.4787005 C319.481732,34.7420649 318.023233,36.8736244 316.519695,38.9328446 C307.773017,50.9111426 298.893692,62.7944184 290.214879,74.821147 C282.56516,85.4219315 275.111636,96.1624904 267.591479,106.855845 C266.45997,108.463863 265.383987,110.109891 264.381423,111.800057 C262.840867,114.396306 261.038103,116.933701 260.049729,119.808272 C259.5722,121.194981 259.227318,122.677326 259.289014,124.152926 C259.334052,125.230047 260.229265,127.12068 259.561094,128.039635 C258.392567,129.647654 256.350421,128.117492 255.740245,126.890788 C255.142409,125.688606 254.909814,124.134535 255.031355,122.782156 C255.412638,118.549076 256.939004,114.678307 259.27359,111.101186 C268.212143,97.4063599 275.657031,87.0483415 284.575224,75.4519709 C293.333008,64.0628098 302.415314,52.4155565 310.96333,39.946209 C312.014634,38.4117558 313.342338,37.1789211 314.574412,35.7830163 C316.207512,33.9322317 316.421598,31.9459639 316.569669,29.6010645 C316.628897,28.6716874 316.943548,27.6387055 317.661693,27.1108733 M102.556591,119.450658 C106.385648,118.653481 110.266197,118.397268 114.066095,116.168451 C119.814642,112.79578 126.601105,109.692072 132.573614,106.698864 C133.649994,106.159723 135.439203,105.650331 136.170024,106.150008 C136.923179,106.664257 137.108056,108.460789 136.982737,109.639251 C136.375994,115.339703 137.169475,116.512093 142.986886,117.548484 C144.506845,117.818662 146.070232,117.845983 147.608182,118.028733 C149.105187,118.206018 150.395601,118.674124 150.976908,120.62487 C151.0588,120.901119 150.918592,121.20469 150.642517,121.303047 C146.487755,122.784472 142.467618,121.68676 138.624293,120.445763 C134.853553,119.227837 131.618211,117.989876 131.618211,112.401745 C131.618211,111.997388 131.177113,111.736318 130.810462,111.923317 C129.038624,112.824922 127.492608,113.625135 125.92736,114.387098 C118.437373,118.032983 110.962896,121.730475 102.683772,123.412864 C101.385912,123.676363 100.000578,123.816613 98.6921725,123.679399 C96.1305759,123.41165 95.2868435,121.729867 96.6399174,119.637658 C97.3471637,118.543589 98.2622412,117.515698 99.2784425,116.685736 C109.384,108.425575 120.701182,102.300124 133.276518,98.4435606 C134.450299,98.0841328 135.687359,97.8291334 136.911392,97.7410978 C138.692536,97.6123838 140.525793,99.0221665 140.454448,100.396735 C140.359528,102.224838 138.721694,102.19691 137.488976,102.464052 C136.085651,102.76823 134.15127,102.641337 132.781446,103.013515 C131.400454,103.388729 130.31725,104.301262 129.044827,104.895047 C127.644604,105.548331 126.104792,105.791795 124.666725,106.358258 C117.435441,109.20818 110.792909,113.155207 104.409701,117.498698 C103.557903,118.078518 103.055386,118.569696 102.556591,119.450658 M173.585961,101.057478 C173.949316,101.148661 174.21167,101.365822 174.256628,101.783346 C174.432147,103.40425 173.351936,104.387471 172.04078,105.160131 C169.150571,106.86382 166.160594,108.415737 163.341824,110.223208 C162.362614,110.851294 155.294443,116.104537 157.090277,117.4051 C157.294741,117.553273 157.563869,117.576668 157.818218,117.594665 C169.260809,118.407517 179.839972,113.335441 188.427459,106.257931 C188.472416,106.222537 188.516758,106.187143 188.561099,106.15115 C190.927215,104.261494 193.11966,102.158278 195.317032,100.077857 C195.98893,99.4413725 196.789542,98.8762755 197.746581,98.7724944 C198.295924,98.7131052 198.950578,98.6933088 199.467281,98.9128688 C200.368893,99.2967989 199.922398,100.041263 199.603385,100.692745 C199.238799,101.438409 198.870517,102.185872 198.388302,102.867948 C194.024352,109.036024 188.109677,113.553801 181.175146,116.47107 C177.359307,118.076977 173.345162,119.634293 169.300224,120.802881 C165.487464,121.90488 160.848226,123.377611 156.866105,122.427984 C153.896451,121.720113 150.694619,117.876014 152.548344,114.740385 C153.454883,113.205865 154.524623,111.679743 155.833316,110.468563 C160.195419,106.429499 165.382153,103.617212 170.948869,101.475002 C171.520998,101.254842 172.794587,100.858314 173.585961,101.057478 M234.547308,109.766271 C234.603597,109.750004 234.646895,109.737353 234.67473,109.730725 C237.839857,108.915597 240.880654,107.826349 243.890525,106.579257 C244.486189,106.332248 250.65129,103.770588 250.481188,103.300669 C250.313561,102.838582 248.469041,103.239218 248.124508,103.284403 C247.157712,103.410317 246.197721,103.580813 245.247626,103.794686 C242.814246,104.341118 240.455091,105.17432 238.183153,106.178018 C236.125233,107.088336 234.030818,108.109505 232.515368,109.791574 C232.45475,109.859049 232.016197,110.4591 232.027331,110.45669 C233.373917,110.176546 233.960922,109.936767 234.547308,109.766271 M226.092332,116.626484 C226.141816,116.783123 226.188207,116.90964 226.207382,116.959042 C226.480163,117.654883 226.924902,118.315179 227.411083,118.885709 C228.418703,120.06894 229.793742,120.94793 231.328986,121.321455 C231.406924,121.340131 231.48548,121.357603 231.564036,121.374471 C232.749799,121.620878 233.928757,121.848005 235.146066,121.940784 C235.678639,121.981149 235.493073,122.006452 236.279252,122.020911 C236.798216,122.031153 236.943576,122.424559 236.626878,122.472154 C233.216805,122.984847 229.430034,122.787843 226.230269,121.46484 C225.124918,121.008176 224.080803,120.356314 223.332356,119.441177 C222.538755,118.471819 222.255458,117.556682 221.938142,116.376463 C221.187839,116.468037 218.239205,116.746373 216.523963,116.669258 C216.05139,116.648172 215.772423,116.308385 216.242522,115.960163 C217.015093,115.386621 217.775292,115.02635 218.666624,114.654632 C220.28661,113.988311 221.408043,114.173266 222.80968,113.120768 C224.785952,111.636307 226.316866,109.691566 228.32592,108.239034 C230.327552,106.792528 232.508564,105.577968 234.750193,104.522458 C237.960474,103.011488 241.338382,101.839101 244.769486,100.90348 C249.346765,99.6551831 254.202392,98.5906361 258.980082,98.7484807 C259.462552,98.7647471 259.969764,98.7990873 260.375533,99.0539279 C261.946035,100.039553 260.17203,102.054782 259.234306,102.67652 C257.28587,103.968195 255.201971,105.113471 253.131061,106.161752 C244.570312,110.495247 235.154726,112.803272 226.010064,115.63122 C225.830066,115.687248 225.971096,116.245729 226.092332,116.626484 M205.403943,106.42905 C206.145497,106.242322 206.556784,105.999948 206.795515,105.8497 C210.042517,103.801263 212.362423,103.024056 215.478926,101.817129 C218.943631,100.476031 222.810965,100.464901 226.388233,101.314449 C227.873814,101.6675 229.386608,102.213462 228.910999,104.098667 C228.465078,105.867013 226.818075,106.198423 225.412277,105.525709 C221.034082,103.432755 216.415918,104.874018 212.671042,107.201928 C209.567527,109.131033 206.408349,110.969865 203.298649,112.888459 C201.540939,113.97358 199.734369,114.994398 198.084274,116.242751 C196.324708,117.573339 195.015393,119.255122 193.49023,120.824375 C192.933601,121.397541 192.307703,121.768523 191.658302,121.730188 C189.710101,121.615802 190.024287,119.844365 190.011918,119.208131 C189.974809,117.287683 191.294638,116.19576 192.335534,115.016038 C193.472913,113.725641 195.028999,112.804369 196.401399,111.720485 C197.788642,110.624234 199.182069,109.490885 200.329343,108.13742 C200.835876,107.540758 201.304062,106.890922 201.612682,106.168126 C201.753076,105.840426 201.860691,105.498504 201.911406,105.144835 C202.004796,104.499945 201.687518,104.032508 202.369079,103.608353 C203.013531,103.207074 203.502746,103.155137 204.2443,103.58733 C205.172015,104.128345 205.248087,105.581357 205.403943,106.42905"/>
</svg>
