<svg>
  <defs>

    <symbol id="twitter">
      <path fill-rule="evenodd" d="M24,5.30873519 C23.117018,5.70044647 22.1680585,5.96518682 21.1719893,6.08420725 C22.1885874,5.47474673 22.9693994,4.50988623 23.3369032,3.36002789 C22.3855704,3.92439592 21.3318303,4.33402554 20.210214,4.55486005 C19.312043,3.59795007 18.0322471,3 16.6162244,3 C13.8969103,3 11.6922438,5.20454781 11.6922438,7.92374327 C11.6922438,8.30964 11.7357936,8.68545026 11.8198081,9.04583414 C7.72754646,8.84054467 4.09938146,6.88020826 1.67091386,3.90125636 C1.24704451,4.628432 1.00425709,5.4741534 1.00425709,6.37659641 C1.00425709,8.08488957 1.87347405,9.59204652 3.19468383,10.4750286 C2.38752837,10.449397 1.62831333,10.2279692 0.964504502,9.85904149 C0.964029844,9.87980776 0.964029844,9.90033671 0.964029844,9.92110299 C0.964029844,12.3067327 2.66128721,14.2967352 4.91377546,14.7490841 C4.50058591,14.8616966 4.06568076,14.9219781 3.61653589,14.9219781 C3.29934586,14.9219781 2.99081834,14.8910067 2.69012267,14.8336918 C3.31678953,16.7896376 5.13520329,18.2133735 7.28979338,18.2530074 C5.60463978,19.5735052 3.48161443,20.3608437 1.17465921,20.3608437 C0.777133364,20.3608437 0.385184746,20.3374668 0,20.291781 C2.17903496,21.6891734 4.76722488,22.5042793 7.54788851,22.5042793 C16.6045953,22.5042793 21.5572927,15.001246 21.5572927,8.49463785 C21.5572927,8.2812792 21.5525461,8.06898853 21.5430529,7.85764718 C22.5051842,7.16346025 23.3398698,6.29626059 24,5.30873519" transform="translate(0 -3)"/>
    </symbol>

    <symbol id="instagram">
      <path fill-rule="evenodd" d="M68,0 C64.7409869,0 64.3323412,0.0137283375 63.0524373,0.0722184192 C61.7751108,0.130550704 60.9028005,0.333372426 60.1395816,0.629978155 C59.3504311,0.936630292 58.6812075,1.34695505 58.0140879,2.01406809 C57.3469683,2.68118114 56.9366395,3.35045074 56.630037,4.13954085 C56.3332705,4.90285746 56.1304468,5.77515918 56.0722191,7.05242056 C56.0137811,8.33231189 56,8.74090088 56,11.999882 C56,15.2589683 56.0137811,15.6675572 56.0722191,16.9474486 C56.1304468,18.22471 56.3332705,19.0970117 56.630037,19.8603283 C56.9366395,20.6494184 57.3469683,21.318688 58.0140879,21.985801 C58.6812075,22.6529141 59.3504311,23.0632388 60.1395816,23.369891 C60.9028005,23.6664967 61.7751108,23.8693184 63.0524373,23.9276507 C64.3323412,23.9860356 64.7409869,23.9998691 68,23.9998691 C71.2590131,23.9998691 71.6677114,23.9860356 72.9476153,23.9276507 C74.2248892,23.8693184 75.0971995,23.6664967 75.860471,23.369891 C76.6496215,23.0632388 77.3187925,22.6529141 77.9859121,21.985801 C78.6530317,21.318688 79.0633605,20.6494184 79.3700156,19.8603283 C79.6667295,19.0970117 79.8695532,18.22471 79.9278335,16.9474486 C79.9862715,15.6675572 80,15.2589683 80,11.999882 C80,8.74090088 79.9862715,8.33231189 79.9278335,7.05242056 C79.8695532,5.77515918 79.6667295,4.90285746 79.3700156,4.13954085 C79.0633605,3.35045074 78.6530317,2.68118114 77.9859121,2.01406809 C77.3187925,1.34695505 76.6496215,0.936630292 75.860471,0.629978155 C75.0971995,0.333372426 74.2248892,0.130550704 72.9476153,0.0722184192 C71.6677114,0.0137283375 71.2590131,0 68,0 M68,2.16213426 C71.2041519,2.16213426 71.5836047,2.17433723 72.8490438,2.23203832 C74.0190147,2.2854263 74.6544168,2.48098936 75.0772643,2.64525602 C75.6374491,2.86296326 76.0372054,3.12301269 76.4570547,3.54291046 C76.8770618,3.96286083 77.1371138,4.36256059 77.354718,4.92268728 C77.5189862,5.3455306 77.7145512,5.98097905 77.7679397,7.15088588 C77.8256414,8.41631248 77.8378971,8.79576163 77.8378971,11.999882 C77.8378971,15.2041075 77.8256414,15.5835567 77.7679397,16.8488781 C77.7145512,18.0188901 77.5189862,18.6543385 77.354718,19.0771819 C77.1371138,19.6372559 76.8770618,20.0370083 76.4570547,20.4569587 C76.0372054,20.8768564 75.6374491,21.1369059 75.0772643,21.3545605 C74.6544168,21.5188798 74.0190147,21.7144428 72.8490438,21.7677256 C71.5838151,21.8255319 71.2044149,21.8376823 68,21.8376823 C64.7955851,21.8376823 64.4161849,21.8255319 63.1509562,21.7677256 C61.9810379,21.7144428 61.3455832,21.5188798 60.9227357,21.3545605 C60.3626035,21.1369059 59.9628472,20.8768564 59.5429453,20.4569587 C59.123096,20.0370083 58.863044,19.6372559 58.6453346,19.0771819 C58.4810138,18.6543385 58.2855014,18.0188901 58.2320603,16.8488781 C58.1744112,15.5835567 58.1621555,15.2041075 58.1621555,11.999882 C58.1621555,8.79576163 58.1744112,8.41631248 58.2320603,7.15088588 C58.2855014,5.98097905 58.4810138,5.3455306 58.6453346,4.92268728 C58.863044,4.36256059 59.123096,3.96286083 59.5429453,3.54291046 C59.9628472,3.12301269 60.3626035,2.86296326 60.9227357,2.64525602 C61.3455832,2.48098936 61.9810379,2.2854263 63.1509562,2.23203832 C64.4163953,2.17433723 64.7958481,2.16213426 68,2.16213426 M68,15.9998777 C65.7908731,15.9998777 63.9999649,14.2090397 63.9999649,11.999882 C63.9999649,9.79077681 65.7908731,7.99993885 68,7.99993885 C70.2091795,7.99993885 72.0000351,9.79077681 72.0000351,11.999882 C72.0000351,14.2090397 70.2091795,15.9998777 68,15.9998777 M68,5.83780458 C64.596759,5.83780458 61.837862,8.59672703 61.837862,11.999882 C61.837862,15.4031947 64.596759,18.162012 68,18.162012 C71.403241,18.162012 74.162138,15.4031947 74.162138,11.999882 C74.162138,8.59672703 71.403241,5.83780458 68,5.83780458 M75.8456906,5.59432384 C75.8456906,6.38956803 75.2009784,7.03432651 74.4056737,7.03432651 C73.6104217,7.03432651 72.9656569,6.38956803 72.9656569,5.59432384 C72.9656569,4.79902704 73.6104217,4.15432117 74.4056737,4.15432117 C75.2009784,4.15432117 75.8456906,4.79902704 75.8456906,5.59432384" transform="translate(-56)"/>
    </smbol>

    <symbol id="facebook">
      <path fill-rule="evenodd" d="M132.766065,0 L115.233935,0 C113.447954,0 112,1.44795384 112,3.23393481 L112,20.7660652 C112,22.5522663 113.447954,24 115.233935,24 L123.880634,24 L123.895532,15.4239008 L121.667238,15.4239008 C121.377648,15.4239008 121.142585,15.1896449 121.141704,14.9001275 L121.130842,12.1354384 C121.129668,11.8444532 121.365612,11.6077021 121.656597,11.6077021 L123.880927,11.6077021 L123.880927,8.93643644 C123.880927,5.83665569 125.774129,4.14872167 128.539332,4.14872167 L130.808649,4.14872167 C131.098753,4.14872167 131.334404,4.38407838 131.334404,4.67447642 L131.334404,7.00543992 C131.334404,7.29583796 131.099047,7.53119467 130.808942,7.53119467 L129.41625,7.53200194 C127.912374,7.53200194 127.621096,8.24643837 127.621096,9.29537928 L127.621096,11.6079223 L130.92563,11.6079223 C131.240687,11.6079223 131.484923,11.8829088 131.447642,12.1953233 L131.119963,14.9600125 C131.088699,15.2246512 130.864277,15.4239008 130.597951,15.4239008 L127.636067,15.4239008 L127.621096,24.0002936 L132.766065,24.0002936 C134.552046,24.0002936 136,22.5522663 136,20.7662854 L136,3.23393481 C136,1.44795384 134.552046,0 132.766065,0" transform="translate(-112)"/>
    </symbol>

  </defs>
</svg>
