<svg xmlns="http://www.w3.org/2000/svg" width="24" height="20" viewBox="0 0 24 20">
  <path fill="#38B6B2" fill-rule="evenodd" d="M24,5.30873519 C23.117018,5.70044647 22.1680585,5.96518682 21.1719893,6.08420725 C22.1885874,5.47474673 22.9693994,4.50988623 23.3369032,3.36002789 C22.3855704,3.92439592 21.3318303,4.33402554 20.210214,4.55486005 C19.312043,3.59795007 18.0322471,3 16.6162244,3 C13.8969103,3 11.6922438,5.20454781 11.6922438,7.92374327 C11.6922438,8.30964 11.7357936,8.68545026 11.8198081,9.04583414 C7.72754646,8.84054467 4.09938146,6.88020826 1.67091386,3.90125636 C1.24704451,4.628432 1.00425709,5.4741534 1.00425709,6.37659641 C1.00425709,8.08488957 1.87347405,9.59204652 3.19468383,10.4750286 C2.38752837,10.449397 1.62831333,10.2279692 0.964504502,9.85904149 C0.964029844,9.87980776 0.964029844,9.90033671 0.964029844,9.92110299 C0.964029844,12.3067327 2.66128721,14.2967352 4.91377546,14.7490841 C4.50058591,14.8616966 4.06568076,14.9219781 3.61653589,14.9219781 C3.29934586,14.9219781 2.99081834,14.8910067 2.69012267,14.8336918 C3.31678953,16.7896376 5.13520329,18.2133735 7.28979338,18.2530074 C5.60463978,19.5735052 3.48161443,20.3608437 1.17465921,20.3608437 C0.777133364,20.3608437 0.385184746,20.3374668 0,20.291781 C2.17903496,21.6891734 4.76722488,22.5042793 7.54788851,22.5042793 C16.6045953,22.5042793 21.5572927,15.001246 21.5572927,8.49463785 C21.5572927,8.2812792 21.5525461,8.06898853 21.5430529,7.85764718 C22.5051842,7.16346025 23.3398698,6.29626059 24,5.30873519" transform="translate(0 -3)"/>
</svg>
